HIERARCHY
ROOT Hips
{
  OFFSET 0.0 0.0 0.0
  CHANNELS 6 XPOSITION YPOSITION ZPOSITION ZROTATION XROTATION YROTATION 
  JOINT Spine
  {
    OFFSET 0.0 0.118905 0.0
    CHANNELS 3 ZROTATION XROTATION YROTATION 
    JOINT Head
    {
      OFFSET 0.0 0.3439156 0.00139004
      CHANNELS 3 ZROTATION XROTATION YROTATION 
      End Site
      {
        OFFSET -0.0029 0.127742 0.0251395
      }
    }
    JOINT RightArm
    {
      OFFSET -0.192727 0.25291768 0.00229786
      CHANNELS 3 ZROTATION XROTATION YROTATION 
      JOINT RightForeArm
      {
        OFFSET -0.26364 0.00099144 -0.0142434
        CHANNELS 3 ZROTATION XROTATION YROTATION 
        JOINT RightHand
        {
          OFFSET -0.220324 0.00085362 0.0102216
          CHANNELS 3 ZROTATION XROTATION YROTATION 
          End Site
          {
            OFFSET -0.133284 -0.006 0.0150291
          }
        }
      }
    }
    JOINT LeftArm
    {
      OFFSET 0.192727 0.2529176801 0.00229786
      CHANNELS 3 ZROTATION XROTATION YROTATION 
      JOINT LeftForeArm
      {
        OFFSET 0.262597 0.00099144 -0.0142434
        CHANNELS 3 ZROTATION XROTATION YROTATION 
        JOINT LeftHand
        {
          OFFSET 0.220902 0.00085362 0.0102216
          CHANNELS 3 ZROTATION XROTATION YROTATION 
          End Site
          {
            OFFSET 0.13419 -0.006 0.0150291
          }
        }
      }
    }
  }
  JOINT RightUpLeg
  {
    OFFSET -0.089458 -0.0866707 0.00101652
    CHANNELS 3 ZROTATION XROTATION YROTATION 
    JOINT RightLeg
    {
      OFFSET 0.0 -0.444227 0.013727
      CHANNELS 3 ZROTATION XROTATION YROTATION 
      JOINT RightFoot
      {
        OFFSET 0.00253549 -0.420924 -0.0146059
        CHANNELS 3 ZROTATION XROTATION YROTATION 
        End Site
        {
          OFFSET 0.0004 -0.0441509 0.084991
        }
      }
    }
  }
  JOINT LeftUpLeg
  {
    OFFSET 0.089458 -0.0866707 0.00101652
    CHANNELS 3 ZROTATION XROTATION YROTATION 
    JOINT LeftLeg
    {
      OFFSET 0.0 -0.444227 0.013727
      CHANNELS 3 ZROTATION XROTATION YROTATION 
      JOINT LeftFoot
      {
        OFFSET -0.00253549 -0.420924 -0.0146059
        CHANNELS 3 ZROTATION XROTATION YROTATION 
        End Site
        {
          OFFSET -0.0004 -0.0441509 0.084991
        }
      }
    }
  }
}
MOTION
Frames: 8
Frame Time: 0.033333
0.420994 0.917081479321 0.00882528 -7.62156989197 2.82124997748 -87.5645004804 5.5190899626 12.1561000385 -3.42166992274 1.76294599637 -13.0818741239 -7.98657947008 75.5468304471 -30.221951247 -4.19520549483 12.6220000484 48.0015996 -4.73775004561 -8.56083957738 9.60662008649 -1.12520002778 -63.5586053593 12.2434385212 -29.787161895 -6.68405983404 34.0068015378 -14.0780000115 5.82328012125 9.61818957317 -0.917487998707 2.08664008036 -22.025399809 -9.60151964273 -0.0339238987561 27.0226001398 -16.665000754 1.23175076539 -29.0303701048 -0.209116606786 0.745752016733 15.5024001045 0.788526023049 1.20632997524 37.3291011728 19.1536006687 -18.1686395791 -45.876720919 -2.94568727298 
0.383914 0.914616479321 0.00321002 -8.30138971912 4.47730980991 -88.0602970821 9.01166962864 12.2293000297 -3.13713000489 0.515811457169 -12.733471297 -7.43776437876 77.1750177716 -28.3924799552 2.96261333551 14.00370036 48.8903984563 -6.64496980765 -8.54430027431 9.6028096947 -1.05843001945 -72.7091942055 0.741350333339 -22.4207328657 -9.82551996542 43.1811013857 -8.38230014003 5.82328012125 9.61818957317 -0.917487998707 4.50212986358 -21.1047995919 -10.3580996971 -1.01608999695 30.8564997266 -14.2975000934 -0.167389033475 -30.8820582944 -0.203913563443 3.37527991823 12.3560000388 2.15283998134 1.44809999556 47.4390003331 19.5736999913 -14.448790491 -37.5034178457 -1.03682591766 
0.350106 0.912850479321 -0.00347084 -9.00971021813 5.61896013487 -87.6239026356 11.1062000716 12.432699648 -2.9756500322 0.818958998113 -12.0349555346 -7.57581530849 79.4064405735 -26.4958764415 10.1408023513 15.0946992827 49.381898869 -7.82504037357 -9.15956029965 9.55299968641 -0.681675023921 -76.92943832 -9.13236077883 -16.0656294562 -13.3757003243 48.9480008567 -2.23700989658 5.82328012125 9.61818957317 -0.917487998707 6.3474501825 -19.4844994283 -9.71661003779 -1.04895996216 33.6132016416 -15.3714004913 -0.966223212704 -34.459506476 -0.267264448449 5.67780008014 7.53153006946 2.36699992243 1.85402005892 58.0382005853 20.1248996724 -8.11787875782 -27.014161441 0.309265282687 
0.318746 0.912967479321 -0.0096446 -9.65035976416 6.26587979456 -86.6744995108 12.8281001529 12.6553996735 -2.8706800565 1.17795736943 -10.9954664835 -8.23692639373 80.8508275075 -24.5274722718 16.7985087542 15.0490992323 48.7706993911 -7.06309990137 -10.0110996203 9.48377998804 -0.234005989544 -77.7617037006 -14.4590784635 -10.3950988318 -16.3987992538 51.5212985321 2.8936800782 5.82328012125 9.61818957317 -0.917487998707 7.51329004928 -17.5086998713 -9.79539029345 -1.10703001704 35.2083001147 -16.5051999407 -0.615854091715 -37.3007627179 -0.298263929008 7.11528980371 2.16515993505 1.52319002808 2.51681009004 67.0851003297 19.6569992709 -4.98273100189 -20.7952724942 0.461989406426 
0.28718 0.917034479321 -0.0143895 -10.1863998404 6.36367017423 -86.2694966138 14.3319003411 12.7558000392 -2.49576990574 0.330603247222 -9.86517945884 -8.68827980824 80.8419824125 -22.5630688854 22.8773839457 13.8841003325 46.987200395 -4.5795799399 -10.439300401 9.43831995647 0.0887016990695 -77.5258914195 -15.7155703085 -4.97652449437 -18.6954008433 53.472898729 6.04767019162 5.82328012125 9.61818957317 -0.917487998707 8.05869004602 -14.8520004634 -9.79800027948 -1.12608998009 35.3339004634 -16.6466002244 0.501136635654 -39.1612686818 -0.227456985388 7.25495009676 -2.75939002138 0.827290014632 3.39618990204 73.602801515 18.0060008221 -4.8246868278 -21.2004273629 0.406923033955 
0.255469 0.923112479321 -0.0178801 -10.4860001119 6.0148400336 -86.541201539 15.4775996876 12.6857999917 -1.87127994696 -1.38047909506 -8.87351709985 -8.75241613832 80.0805256031 -20.7473860379 28.3847857471 12.3330002305 44.5535015409 -1.45992998992 -10.571700203 9.41306960088 0.316339997966 -77.1818684514 -14.1385385395 0.444609349753 -19.9685002933 55.6486008476 6.72939009202 5.82328012125 9.61818957317 -0.917487998707 8.07115001861 -11.8004998998 -9.63030035234 -0.965963985681 34.453799853 -16.235299893 1.40582144476 -40.8731633897 -0.134623201964 6.45817992866 -7.30024022737 0.508008019403 4.23563978783 77.4150032983 15.6264004813 -5.76378148961 -24.811903547 0.321532302437 
0.224391 0.929437479321 -0.0207292 -10.5230001004 5.44696017676 -86.9829986651 16.2945005576 12.5352002969 -1.18799998866 -3.18739464765 -8.2696284857 -8.74523163309 78.9563106166 -18.9294167847 33.2895531278 10.8459997463 41.7513003207 1.87139990215 -10.8896002589 9.37997989567 0.518460023102 -77.2132053593 -10.7074049628 5.60894665066 -18.9824002696 56.196600585 4.38430995418 5.82328012125 9.61818957317 -0.917487998707 7.65984029566 -8.75687966694 -9.11822997121 -0.221496004491 33.0309006941 -16.4918998548 1.77017457766 -42.3194969276 -0.0784654132883 5.24291980125 -11.7049003033 0.0977200967546 4.48272999191 78.6148011581 14.1100003016 -6.3005494079 -27.6639412424 0.200381995456 
0.194159 0.936148479321 -0.0232924 -10.4810004135 4.79092989849 -87.3025968767 16.7781991867 12.5156002153 -0.553858012084 -4.92809845315 -8.13937763201 -8.78352167357 76.5024490441 -16.1390403294 37.4162065752 9.37203040925 37.8945998549 5.67902012268 -11.3403995743 9.33857016628 0.723189980914 -77.7486307185 -7.73170754611 10.2375297828 -16.4134004907 54.3185990916 0.582966997666 5.82328012125 9.61818957317 -0.917487998707 7.0066897959 -5.63394983878 -8.09246020882 0.999030959165 31.0235012669 -17.4313992053 1.99889840306 -43.0910077755 -0.038377435559 3.87327989623 -15.6793993342 -0.571134015094 3.98746016859 77.4175031476 14.2883997201 -5.73317968081 -29.6061311461 0.0862825114325 
